<svg width="97" height="82" viewBox="0 0 97 82" fill="none" xmlns="http://www.w3.org/2000/svg">
<path d="M46.8117 2.55483L45.8049 3.56161C45.7971 3.56928 45.7879 3.57529 45.7777 3.5793C45.7676 3.58332 45.7566 3.58527 45.7456 3.58502C45.7345 3.58478 45.7235 3.58236 45.7133 3.5779C45.703 3.57344 45.6937 3.56703 45.6858 3.55903C45.3649 3.22084 44.9879 2.94478 44.5548 2.73082C44.5395 2.72343 44.5263 2.71248 44.5161 2.6989C44.506 2.68532 44.4992 2.6695 44.4964 2.65277C44.4936 2.63605 44.4949 2.61889 44.5001 2.60275C44.5053 2.58661 44.5143 2.57195 44.5263 2.56001L47.0653 0.0184612C47.0717 0.0119865 47.0795 0.00701182 47.0882 0.00386509C47.0968 0.000718352 47.1061 -0.000529298 47.1153 0.000204201C47.1246 0.000937701 47.1337 0.00363532 47.1421 0.00812032C47.1504 0.0126053 47.1577 0.0187759 47.1636 0.0262253L50.3238 4.22676C50.3317 4.23784 50.3346 4.25195 50.3317 4.266C50.3287 4.28006 50.3203 4.29293 50.3082 4.30182L49.097 5.21543C49.0866 5.22272 49.0738 5.22571 49.0613 5.22378C49.0487 5.22185 49.0374 5.21515 49.0297 5.20508L47.0472 2.57036C46.9747 2.47374 46.8962 2.46856 46.8117 2.55483ZM42.153 7.48005C41.349 8.3186 40.8339 8.86556 40.6079 9.12092C40.595 9.13593 40.5789 9.14778 40.5607 9.15558C40.5426 9.16338 40.5229 9.16691 40.5031 9.16592C40.4834 9.16492 40.4641 9.15941 40.4469 9.14981C40.4296 9.14022 40.4147 9.12679 40.4034 9.11057C40.1395 8.72062 39.8013 8.42989 39.3889 8.23837C39.3706 8.22951 39.3548 8.21639 39.3426 8.20011C39.3305 8.18384 39.3224 8.16489 39.3191 8.14485C39.3158 8.12482 39.3174 8.10428 39.3237 8.08497C39.33 8.06567 39.3408 8.04815 39.3553 8.03391C39.9005 7.47487 40.4414 6.91497 40.978 6.35421C41.7838 5.51738 42.2988 4.97042 42.5231 4.71333C42.5362 4.69797 42.5526 4.68586 42.5711 4.67796C42.5897 4.67007 42.6098 4.66661 42.6299 4.66787C42.65 4.66913 42.6695 4.67506 42.687 4.6852C42.7044 4.69534 42.7192 4.7094 42.7302 4.72627C42.9942 5.11449 43.3315 5.40523 43.7421 5.59847C43.7601 5.6072 43.7758 5.62005 43.7879 5.63599C43.8 5.65193 43.8081 5.6705 43.8116 5.69019C43.8152 5.70987 43.814 5.73011 43.8082 5.74926C43.8024 5.7684 43.7922 5.78591 43.7784 5.80035C43.2314 6.35938 42.6896 6.91928 42.153 7.48005ZM52.2623 9.42632C51.5514 8.48769 51.0855 7.88466 50.8647 7.61722C50.8521 7.60183 50.8432 7.58381 50.8386 7.56449C50.834 7.54518 50.8338 7.52507 50.838 7.50567C50.8422 7.48626 50.8508 7.46806 50.863 7.45243C50.8752 7.43679 50.8909 7.42411 50.9087 7.41534C51.34 7.21347 51.6851 6.92187 51.9439 6.54055C51.9552 6.52359 51.9704 6.50967 51.9884 6.49996C52.0063 6.49026 52.0264 6.48506 52.047 6.48481C52.0675 6.48455 52.088 6.48925 52.1065 6.4985C52.1251 6.50776 52.1412 6.52129 52.1536 6.53797C52.6263 7.17292 53.1 7.80356 53.5744 8.42989C54.2836 9.37024 54.7486 9.97328 54.9695 10.239C54.9825 10.2544 54.9918 10.2726 54.9968 10.2922C55.0017 10.3118 55.002 10.3323 54.9978 10.3521C54.9935 10.3718 54.9848 10.3903 54.9722 10.4062C54.9597 10.422 54.9437 10.4348 54.9254 10.4435C54.4941 10.6453 54.149 10.9369 53.8902 11.3182C53.8788 11.3347 53.8637 11.3482 53.846 11.3575C53.8283 11.3669 53.8086 11.3719 53.7884 11.3722C53.7682 11.3724 53.7482 11.3679 53.7299 11.359C53.7116 11.3501 53.6956 11.337 53.6831 11.3208C53.2104 10.6842 52.7368 10.0526 52.2623 9.42632ZM37.5539 10.0086L38.7574 10.8964C38.7674 10.9039 38.7758 10.9134 38.7818 10.9244C38.7879 10.9354 38.7915 10.9475 38.7925 10.96C38.7935 10.9725 38.7918 10.9851 38.7875 10.9969C38.7832 11.0087 38.7765 11.0194 38.7677 11.0284L35.5947 14.2014C35.5782 14.2179 35.5559 14.2271 35.5326 14.2271C35.5093 14.2271 35.487 14.2179 35.4705 14.2014L34.4249 13.1558C34.4084 13.1393 34.3992 13.117 34.3992 13.0937C34.3992 13.0704 34.4084 13.0481 34.4249 13.0316L37.4374 10.019C37.4522 10.0033 37.4722 9.99359 37.4937 9.99168C37.5152 9.98978 37.5366 9.99581 37.5539 10.0086ZM29.4505 21.2903C29.4505 22.588 29.1949 23.8729 28.6983 25.0718C28.2017 26.2707 27.4738 27.36 26.5563 28.2776C25.6387 29.1952 24.5493 29.923 23.3505 30.4196C22.1516 30.9162 20.8666 31.1718 19.569 31.1718C16.9483 31.1718 14.4349 30.1307 12.5817 28.2776C10.7286 26.4244 9.6875 23.911 9.6875 21.2903C9.6875 18.6696 10.7286 16.1562 12.5817 14.3031C14.4349 12.4499 16.9483 11.4088 19.569 11.4088C20.8666 11.4088 22.1516 11.6644 23.3505 12.161C24.5493 12.6576 25.6387 13.3855 26.5563 14.3031C27.4738 15.2206 28.2017 16.31 28.6983 17.5088C29.1949 18.7077 29.4505 19.9927 29.4505 21.2903ZM26.9503 21.3033C26.9503 19.3449 26.1724 17.4668 24.7876 16.082C23.4029 14.6973 21.5247 13.9193 19.5664 13.9193C17.6081 13.9193 15.7299 14.6973 14.3452 16.082C12.9604 17.4668 12.1825 19.3449 12.1825 21.3033C12.1825 23.2616 12.9604 25.1397 14.3452 26.5245C15.7299 27.9092 17.6081 28.6872 19.5664 28.6872C21.5247 28.6872 23.4029 27.9092 24.7876 26.5245C26.1724 25.1397 26.9503 23.2616 26.9503 21.3033ZM58.2176 14.5198C58.9077 15.436 59.3606 16.0235 59.5763 16.2823C59.5889 16.2974 59.5978 16.3153 59.6024 16.3344C59.607 16.3535 59.6072 16.3735 59.603 16.3927C59.5987 16.4119 59.5902 16.4299 59.5779 16.4453C59.5657 16.4607 59.5501 16.4731 59.5323 16.4816C59.1113 16.6783 58.7749 16.9621 58.523 17.3331C58.5117 17.3498 58.4966 17.3635 58.4789 17.3731C58.4613 17.3826 58.4415 17.3878 58.4214 17.388C58.4013 17.3883 58.3814 17.3836 58.3635 17.3745C58.3456 17.3654 58.3301 17.3521 58.3185 17.3356C57.8595 16.7145 57.3988 16.0985 56.9364 15.4877C56.2463 14.5715 55.7933 13.9832 55.5777 13.7226C55.5656 13.7075 55.5571 13.6899 55.5528 13.671C55.5484 13.6522 55.5484 13.6326 55.5526 13.6137C55.5568 13.5949 55.5652 13.5772 55.5772 13.562C55.5891 13.5468 55.6043 13.5345 55.6217 13.5259C56.0427 13.3292 56.3791 13.0454 56.631 12.6744C56.6422 12.6577 56.6573 12.644 56.675 12.6344C56.6927 12.6249 56.7125 12.6197 56.7326 12.6195C56.7527 12.6192 56.7726 12.6239 56.7905 12.633C56.8084 12.6421 56.8239 12.6554 56.8355 12.6718C57.2945 13.293 57.7551 13.909 58.2176 14.5198Z" fill="#3FBAC2"/>
<path d="M20.3242 26.3889V27.5457C20.3242 27.6959 20.2492 27.7709 20.0991 27.7709H19.0095C18.8542 27.7709 18.7765 27.6933 18.7765 27.538V26.2724C18.7765 26.1792 18.7308 26.1231 18.6394 26.1042C17.7283 25.9161 16.9174 25.6271 16.2065 25.2371C16.1623 25.212 16.1289 25.1714 16.1126 25.1232C16.0964 25.075 16.0985 25.0225 16.1185 24.9757L16.7267 23.5911C16.7346 23.5732 16.7463 23.5573 16.7611 23.5444C16.7759 23.5316 16.7933 23.5221 16.8123 23.5167C16.8313 23.5113 16.8513 23.51 16.8709 23.5131C16.8905 23.5161 16.9093 23.5233 16.926 23.5341C18.2373 24.402 19.553 24.6893 20.8729 24.396C21.6105 24.2303 22.1566 23.441 21.3879 22.8612C21.0843 22.6317 20.7944 22.4834 20.5183 22.4161C19.2519 22.1055 18.2874 21.8217 17.6248 21.5646C16.2246 21.0211 15.5207 19.7891 16.0357 18.3579C16.4369 17.2372 17.454 16.7377 18.6368 16.5255C18.6774 16.5182 18.7141 16.4971 18.7406 16.4659C18.7671 16.4347 18.7816 16.3953 18.7817 16.3547V15.2547C18.7817 15.1305 18.843 15.0684 18.9655 15.0684H20.1431C20.1638 15.0684 20.1843 15.0724 20.2035 15.0804C20.2226 15.0883 20.24 15.0999 20.2547 15.1146C20.2694 15.1293 20.281 15.1467 20.2889 15.1658C20.2969 15.185 20.3009 15.2055 20.3009 15.2262V16.378C20.3009 16.447 20.3337 16.4918 20.3993 16.5125L22.5423 17.1492C22.579 17.1602 22.6129 17.1789 22.6419 17.204C22.6708 17.2292 22.6941 17.2603 22.7102 17.2952C22.7264 17.3302 22.735 17.3682 22.7354 17.4068C22.7359 17.4454 22.7283 17.4838 22.7131 17.5193L22.1307 18.8419C22.0859 18.9437 22.016 18.9661 21.9211 18.9091C20.8988 18.3087 19.3149 17.8454 18.2071 18.4381C17.146 19.0075 17.8137 19.8616 18.6419 20.0867C20.4122 20.5707 23.813 20.9771 23.5801 23.6765C23.4326 25.3898 22.0169 26.0653 20.4614 26.2361C20.3699 26.2448 20.3242 26.2957 20.3242 26.3889ZM32.5661 15.1796C32.8749 15.6231 33.2468 15.9906 33.6816 16.2822C33.6947 16.2907 33.7058 16.3021 33.7141 16.3155C33.7223 16.3288 33.7275 16.3438 33.7292 16.3594C33.7309 16.375 33.7292 16.3908 33.7241 16.4057C33.719 16.4205 33.7106 16.434 33.6997 16.4452L31.549 18.596C31.5448 18.6003 31.5397 18.6036 31.534 18.6055C31.5284 18.6074 31.5223 18.6078 31.5164 18.6068C31.5105 18.6058 31.505 18.6033 31.5003 18.5996C31.4955 18.5959 31.4918 18.5911 31.4894 18.5856L30.8476 17.1052C30.8286 17.0638 30.8338 17.0258 30.8631 16.9913L32.4134 15.1796C32.4686 15.1141 32.5195 15.1141 32.5661 15.1796ZM51.5164 75.9283C51.5164 75.9482 51.5085 75.9673 51.4944 75.9814C51.4803 75.9954 51.4612 76.0033 51.4413 76.0033H37.9209C37.901 76.0033 37.8819 75.9954 37.8679 75.9814C37.8538 75.9673 37.8459 75.9482 37.8459 75.9283V19.7451C37.8459 19.7252 37.8538 19.7061 37.8679 19.692C37.8819 19.678 37.901 19.6701 37.9209 19.6701H51.4413C51.4612 19.6701 51.4803 19.678 51.4944 19.692C51.5085 19.7061 51.5164 19.7252 51.5164 19.7451V75.9283ZM48.9412 22.3048C48.9412 22.2746 48.9292 22.2456 48.9078 22.2243C48.8865 22.2029 48.8575 22.1909 48.8273 22.1909H40.4521C40.4219 22.1909 40.393 22.2029 40.3716 22.2243C40.3503 22.2456 40.3383 22.2746 40.3383 22.3048V73.4256C40.3383 73.4558 40.3503 73.4847 40.3716 73.5061C40.393 73.5274 40.4219 73.5394 40.4521 73.5394H48.8273C48.8575 73.5394 48.8865 73.5274 48.9078 73.5061C48.9292 73.4847 48.9412 73.4558 48.9412 73.4256V22.3048ZM94.0834 34.5363C94.1206 34.5228 94.1523 34.4976 94.1738 34.4644C94.1953 34.4313 94.2054 34.392 94.2025 34.3525C93.9661 31.4952 92.6953 29.3514 90.3901 27.921C87.7528 26.2879 84.3054 26.7486 81.8726 28.7648C81.807 28.8182 81.7371 28.8251 81.663 28.7855C79.501 27.6467 77.1881 27.1592 74.7242 27.3232C74.7144 27.3232 74.7047 27.3214 74.6959 27.3178C74.687 27.3143 74.679 27.309 74.6724 27.3025L72.7779 25.2035C72.7735 25.1982 72.7705 25.1918 72.7692 25.1851C72.7679 25.1783 72.7683 25.1714 72.7704 25.1651C72.7725 25.1588 72.7763 25.1532 72.7812 25.1491C72.7862 25.1449 72.7922 25.1422 72.7986 25.1414C75.6921 24.6859 78.5184 24.9516 81.2773 25.9385C81.3584 25.9678 81.4352 25.9609 81.5077 25.9178C88.2187 21.9994 96.0193 26.3914 96.6922 33.9565C96.9536 36.8734 93.9851 37.3781 91.7463 37.3962C87.3025 37.435 82.1392 36.172 78.5417 33.4622C78.4399 33.3846 78.4269 33.294 78.5028 33.1905L79.7426 31.5056C79.8237 31.3969 79.9194 31.3831 80.0298 31.4642C83.2961 33.9177 88.1022 35.0151 92.1966 34.8857C92.8523 34.865 93.4812 34.7485 94.0834 34.5363ZM56.2061 33.7469C56.6564 29.2487 59.7803 25.3795 64.3458 24.6134C68.0546 23.9922 71.7659 25.4623 73.7717 28.7233C74.2842 29.5584 74.6172 30.4151 74.7708 31.2934C75.0503 32.9109 73.9296 33.8841 72.6381 34.5699C68.6576 36.6836 64.4113 37.6093 59.8994 37.347C59.2195 37.309 58.5009 37.1158 57.7434 36.7673C56.4778 36.1823 56.0663 35.1341 56.2061 33.7469ZM58.89 32.8152C58.7485 33.3828 58.6864 33.897 58.7036 34.3577C58.7053 34.4151 58.7252 34.4705 58.7605 34.5161C58.7958 34.5616 58.8448 34.595 58.9003 34.6113C59.5767 34.8046 60.241 34.9064 60.8932 34.9167C64.6175 34.9814 68.8983 34.0135 72.136 31.8964C72.2603 31.8153 72.3017 31.7031 72.2603 31.5599C71.2664 28.0504 67.7336 26.2957 64.2707 27.1653C61.4911 27.8615 59.581 30.0278 58.89 32.8152Z" fill="#3FBAC2"/>
<path d="M45.803 25.2578H43.5824C43.5024 25.2578 43.4375 25.3227 43.4375 25.4027V70.3482C43.4375 70.4283 43.5024 70.4932 43.5824 70.4932H45.803C45.8831 70.4932 45.948 70.4283 45.948 70.3482V25.4027C45.948 25.3227 45.8831 25.2578 45.803 25.2578Z" fill="#3FBAC2"/>
<path d="M68.5234 72.9753C68.5414 72.9765 68.5591 72.9709 68.5732 72.9597C68.5873 72.9485 68.5967 72.9325 68.5996 72.9147C68.6025 72.897 68.5987 72.8788 68.5889 72.8637C68.5791 72.8486 68.5641 72.8376 68.5467 72.833C55.8131 68.2546 52.081 52.0244 60.8574 42.0731C67.2992 34.7719 78.1771 33.7522 85.8251 39.767C97.4458 48.9083 94.5315 67.3695 80.993 72.8666C80.7877 72.9495 80.7963 72.9909 81.0189 72.9909C85.1237 72.9926 88.4555 72.9926 91.0143 72.9909C93.9026 72.9909 95.7635 75.2218 95.2381 78.0533C94.9689 79.4992 94.2391 80.4697 93.0485 80.9649C92.5102 81.1875 91.4085 81.2988 89.7435 81.2988C77.7984 81.2919 68.1861 81.2901 60.9065 81.2936C59.8282 81.2936 59.0517 81.2056 58.5772 81.0296C56.4342 80.2299 55.5025 77.5201 56.4084 75.4729C57.1486 73.8027 58.4935 72.9745 60.4433 72.9883C63.5421 73.0073 66.2355 73.003 68.5234 72.9753ZM75.0046 71.4918C77.1166 71.4366 79.1966 70.9517 81.1259 70.065C83.0553 69.1783 84.7961 67.907 86.2491 66.3238C87.7021 64.7407 88.8387 62.8765 89.5941 60.8379C90.3495 58.7993 90.7089 56.6262 90.6517 54.4425C90.5945 52.2589 90.1219 50.1075 89.2609 48.1112C88.3998 46.1149 87.1672 44.3129 85.6334 42.8079C84.0996 41.3029 82.2946 40.1245 80.3215 39.34C78.3485 38.5554 76.2459 38.1801 74.134 38.2354C72.022 38.2907 69.942 38.7755 68.0126 39.6622C66.0833 40.549 64.3424 41.8202 62.8895 43.4034C61.4365 44.9866 60.2999 46.8507 59.5445 48.8893C58.7891 50.9279 58.4297 53.101 58.4869 55.2847C58.5441 57.4683 59.0167 59.6197 59.8777 61.616C60.7387 63.6123 61.9713 65.4143 63.5052 66.9193C65.039 68.4243 66.8439 69.6027 68.817 70.3872C70.7901 71.1718 72.8926 71.5471 75.0046 71.4918ZM92.8855 76.8472C92.8855 76.4813 92.7402 76.1305 92.4815 75.8718C92.2228 75.6131 91.8719 75.4677 91.506 75.4677H59.9256C59.5598 75.4677 59.2089 75.6131 58.9502 75.8718C58.6915 76.1305 58.5462 76.4813 58.5462 76.8472V77.4683C58.5462 77.8342 58.6915 78.1851 58.9502 78.4438C59.2089 78.7025 59.5598 78.8478 59.9256 78.8478H91.506C91.8719 78.8478 92.2228 78.7025 92.4815 78.4438C92.7402 78.1851 92.8855 77.8342 92.8855 77.4683V76.8472ZM32.4992 75.8948C32.4992 75.9222 32.4883 75.9485 32.4689 75.968C32.4495 75.9874 32.4231 75.9983 32.3957 75.9983H19.1289C19.1153 75.9983 19.1019 75.9956 19.0893 75.9904C19.0767 75.9852 19.0653 75.9776 19.0557 75.968C19.0461 75.9584 19.0385 75.9469 19.0333 75.9344C19.0281 75.9218 19.0254 75.9084 19.0254 75.8948V36.3378C19.0254 36.3242 19.0281 36.3107 19.0333 36.2981C19.0385 36.2856 19.0461 36.2742 19.0557 36.2646C19.0653 36.2549 19.0767 36.2473 19.0893 36.2421C19.1019 36.2369 19.1153 36.2342 19.1289 36.2342H32.3957C32.4231 36.2342 32.4495 36.2451 32.4689 36.2646C32.4883 36.284 32.4992 36.3103 32.4992 36.3378V75.8948ZM30.0638 38.8664C30.0638 38.8362 30.0518 38.8072 30.0304 38.7858C30.0091 38.7645 29.9801 38.7525 29.9499 38.7525H21.5954C21.5652 38.7525 21.5362 38.7645 21.5149 38.7858C21.4935 38.8072 21.4815 38.8362 21.4815 38.8664V73.4231C21.4815 73.4533 21.4935 73.4823 21.5149 73.5036C21.5362 73.525 21.5652 73.537 21.5954 73.537H29.9499C29.9801 73.537 30.0091 73.525 30.0304 73.5036C30.0518 73.4823 30.0638 73.4533 30.0638 73.4231V38.8664Z" fill="#3FBAC2"/>
<path d="M26.9266 41.8064H24.5818C24.4988 41.8064 24.4316 41.8736 24.4316 41.9565V70.3224C24.4316 70.4053 24.4988 70.4725 24.5818 70.4725H26.9266C27.0095 70.4725 27.0767 70.4053 27.0767 70.3224V41.9565C27.0767 41.8736 27.0095 41.8064 26.9266 41.8064Z" fill="#3FBAC2"/>
<path d="M73.7333 46.2813V44.2806C73.7333 44.1443 73.8023 44.0762 73.9403 44.0762H76.2489C76.284 44.0762 76.3175 44.0898 76.3423 44.1141C76.367 44.1383 76.3809 44.1713 76.3809 44.2056V46.3537C76.3809 46.4193 76.4129 46.4564 76.4767 46.465C77.8553 46.6583 79.1925 47.0482 80.4883 47.6349C80.5218 47.6501 80.5479 47.678 80.561 47.7124C80.5741 47.7468 80.5731 47.7849 80.5582 47.8186L79.4893 50.2515C79.4496 50.3429 79.3866 50.3627 79.3004 50.311C77.5689 49.2731 74.049 48.2922 72.2736 49.7002C71.5593 50.2644 71.5178 51.2556 72.2581 51.8043C72.7136 52.1408 73.2536 52.3824 73.8782 52.529C76.2334 53.0777 78.3609 53.3727 80.1674 54.5633C81.9325 55.7279 82.3828 57.8217 81.609 59.7551C80.7575 61.8851 78.5576 62.3147 76.5155 62.5632C76.4206 62.5753 76.3732 62.6288 76.3732 62.7237V65.0323C76.3732 65.1203 76.3292 65.1643 76.2412 65.1643H73.8912C73.85 65.1643 73.8105 65.1482 73.7814 65.1195C73.7522 65.0909 73.7359 65.0521 73.7359 65.0116V62.4881C73.7359 62.4053 73.6953 62.3562 73.6142 62.3406C72.1131 62.0628 70.6534 61.5797 69.2351 60.8913C69.1823 60.8657 69.1415 60.8204 69.1212 60.7649C69.101 60.7095 69.1028 60.6481 69.1264 60.5936L70.2031 58.1401C70.2108 58.1224 70.2223 58.1067 70.2368 58.0939C70.2513 58.0812 70.2683 58.0718 70.2868 58.0663C70.3053 58.0609 70.3248 58.0596 70.3439 58.0625C70.3629 58.0654 70.3811 58.0725 70.3972 58.0831C72.3486 59.3876 74.4787 59.944 76.7873 59.7525C77.7837 59.6697 79.0778 59.2012 79.0881 58.0676C79.114 54.4028 68.2568 56.978 68.8521 50.3938C69.0772 47.8963 71.1814 46.6591 73.6039 46.4262C73.6902 46.4176 73.7333 46.3693 73.7333 46.2813ZM13.6187 75.9128C13.6187 75.9341 13.6103 75.9545 13.5953 75.9695C13.5802 75.9846 13.5598 75.993 13.5385 75.993H0.0802315C0.0589526 75.993 0.038546 75.9846 0.0234996 75.9695C0.00845314 75.9545 0 75.9341 0 75.9128V54.923C0 54.9018 0.00845314 54.8813 0.0234996 54.8663C0.038546 54.8513 0.0589526 54.8428 0.0802315 54.8428H13.5385C13.5598 54.8428 13.5802 54.8513 13.5953 54.8663C13.6103 54.8813 13.6187 54.9018 13.6187 54.923V75.9128ZM11.0876 57.4568C11.0876 57.4422 11.0847 57.4277 11.0791 57.4142C11.0735 57.4007 11.0653 57.3885 11.055 57.3781C11.0446 57.3678 11.0324 57.3596 11.0189 57.354C11.0054 57.3484 10.9909 57.3455 10.9763 57.3455H2.65801C2.6434 57.3455 2.62892 57.3484 2.61542 57.354C2.60192 57.3596 2.58965 57.3678 2.57932 57.3781C2.56898 57.3885 2.56078 57.4007 2.55519 57.4142C2.5496 57.4277 2.54672 57.4422 2.54672 57.4568V73.4204C2.54672 73.4499 2.55845 73.4782 2.57932 73.4991C2.60019 73.52 2.62849 73.5317 2.65801 73.5317H10.9763C11.0058 73.5317 11.0341 73.52 11.055 73.4991C11.0758 73.4782 11.0876 73.4499 11.0876 73.4204V57.4568Z" fill="#3FBAC2"/>
<path d="M7.97445 60.3943H5.68136C5.59846 60.3943 5.53125 60.4615 5.53125 60.5444V70.3275C5.53125 70.4104 5.59846 70.4777 5.68136 70.4777H7.97445C8.05735 70.4777 8.12456 70.4104 8.12456 70.3275V60.5444C8.12456 60.4615 8.05735 60.3943 7.97445 60.3943Z" fill="#3FBAC2"/>
</svg>
